#N canvas 623 54 560 426 10;
#X obj 12 262 dac~;
#X obj 15 39 *~ 0.2;
#X obj 243 107 s android;
#X obj 243 84 r test;
#X obj 15 20 osc~ 880;
#X obj 12 221 *~;
#X obj 32 191 line~;
#X obj 65 48 r tone;
#X msg 59 138 1 25;
#X obj 94 112 delay 25;
#X obj 57 78 bang;
#X msg 99 138 0.3 50;
#X msg 109 168 0 50;
#X obj 144 132 delay 50;
#X obj 106 14 r freq;
#X connect 1 0 5 0;
#X connect 3 0 2 0;
#X connect 4 0 1 0;
#X connect 5 0 0 0;
#X connect 5 0 0 1;
#X connect 6 0 5 1;
#X connect 7 0 10 0;
#X connect 8 0 6 0;
#X connect 9 0 11 0;
#X connect 9 0 13 0;
#X connect 10 0 9 0;
#X connect 10 0 8 0;
#X connect 11 0 6 0;
#X connect 12 0 6 0;
#X connect 13 0 12 0;
#X connect 14 0 4 0;
